<mxfile host="app.diagrams.net" modified="2020-12-07T11:10:16.662Z" agent="5.0 (Windows NT 10.0; Win64; x64) AppleWebKit/537.36 (KHTML, like Gecko) Chrome/86.0.4240.198 Safari/537.36" etag="3xr1zBX4hY4hQTWXoeHz" version="13.10.9" type="github">
  <diagram id="0DkKz2EjrmcNMTaaRU0T" name="Page-1">
    <mxGraphModel dx="1313" dy="1652" grid="1" gridSize="10" guides="1" tooltips="1" connect="1" arrows="1" fold="1" page="1" pageScale="1" pageWidth="850" pageHeight="1100" math="0" shadow="0">
      <root>
        <mxCell id="0" />
        <mxCell id="1" parent="0" />
        <UserObject label="Order Literature" lucidchartObjectId="pBjLOZaNNB7b" id="a1okjNHGLK1KyI7zbIEn-5">
          <mxCell style="html=1;overflow=block;whiteSpace=wrap;;whiteSpace=wrap;fontSize=13;fontColor=#333333;spacing=0;strokeColor=#5e5e5e;strokeOpacity=100;rounded=1;absoluteArcSize=1;arcSize=7;strokeWidth=2;" parent="1" vertex="1" zOrder="2">
            <mxGeometry x="384" y="84" width="108" height="36" as="geometry" />
          </mxCell>
        </UserObject>
        <mxCell id="a1okjNHGLK1KyI7zbIEn-6" style="edgeStyle=orthogonalEdgeStyle;rounded=0;orthogonalLoop=1;jettySize=auto;html=1;exitX=1;exitY=0.5;exitDx=0;exitDy=0;entryX=0;entryY=0.5;entryDx=0;entryDy=0;" parent="1" source="a1okjNHGLK1KyI7zbIEn-7" target="a1okjNHGLK1KyI7zbIEn-80" edge="1">
          <mxGeometry relative="1" as="geometry" />
        </mxCell>
        <UserObject label="Sales Literature" lucidchartObjectId="YBjLfeXOZ875" id="a1okjNHGLK1KyI7zbIEn-7">
          <mxCell style="html=1;overflow=block;whiteSpace=wrap;;whiteSpace=wrap;fontSize=13;fontColor=#333333;spacing=0;strokeColor=#5e5e5e;strokeOpacity=100;rounded=1;absoluteArcSize=1;arcSize=7;strokeWidth=2;" parent="1" vertex="1" zOrder="3">
            <mxGeometry x="372" y="298" width="108" height="36" as="geometry" />
          </mxCell>
        </UserObject>
        <UserObject label="" lucidchartObjectId="IDjLZH2CIHoi" id="a1okjNHGLK1KyI7zbIEn-9">
          <mxCell style="html=1;jettySize=18;whiteSpace=wrap;fontSize=11;strokeColor=#5E5E5E;rounded=1;arcSize=12;edgeStyle=orthogonalEdgeStyle;startArrow=none;;endArrow=block;endFill=1;;exitX=1.007;exitY=0.5;exitPerimeter=0;entryX=-0.008;entryY=0.5;entryPerimeter=0;" parent="1" target="a1okjNHGLK1KyI7zbIEn-7" edge="1">
            <mxGeometry width="100" height="100" relative="1" as="geometry">
              <Array as="points">
                <mxPoint x="250" y="264" />
                <mxPoint x="250" y="328" />
              </Array>
              <mxPoint x="144.9240000000001" y="264" as="sourcePoint" />
            </mxGeometry>
          </mxCell>
        </UserObject>
        <mxCell id="a1okjNHGLK1KyI7zbIEn-10" value="eDoc" style="text;html=1;resizable=0;labelBackgroundColor=#ffffff;align=center;verticalAlign=middle;fontStyle=1;fontColor=#333333;;fontSize=10.666666666666666;" parent="a1okjNHGLK1KyI7zbIEn-9" vertex="1">
          <mxGeometry x="0.6569165143205373" relative="1" as="geometry" />
        </mxCell>
        <UserObject label="" lucidchartObjectId="6DjLCiu6LorC" id="a1okjNHGLK1KyI7zbIEn-11">
          <mxCell style="html=1;jettySize=18;whiteSpace=wrap;fontSize=11;strokeColor=#5E5E5E;rounded=1;arcSize=12;edgeStyle=orthogonalEdgeStyle;startArrow=none;;endArrow=block;endFill=1;;exitX=1.007;exitY=0.5;exitPerimeter=0;entryX=-0.008;entryY=0.717;entryPerimeter=0;" parent="1" target="a1okjNHGLK1KyI7zbIEn-5" edge="1">
            <mxGeometry width="100" height="100" relative="1" as="geometry">
              <Array as="points" />
              <mxPoint x="144.9240000000001" y="264" as="sourcePoint" />
            </mxGeometry>
          </mxCell>
        </UserObject>
        <mxCell id="a1okjNHGLK1KyI7zbIEn-12" value="eDoc" style="text;html=1;resizable=0;labelBackgroundColor=#ffffff;align=center;verticalAlign=middle;fontStyle=1;fontColor=#333333;;fontSize=10.666666666666666;" parent="a1okjNHGLK1KyI7zbIEn-11" vertex="1">
          <mxGeometry x="0.7166140904311262" relative="1" as="geometry" />
        </mxCell>
        <UserObject label="" lucidchartObjectId="fEjLspF8iSy~" id="a1okjNHGLK1KyI7zbIEn-13">
          <mxCell style="html=1;jettySize=18;whiteSpace=wrap;fontSize=11;strokeColor=#5E5E5E;rounded=1;arcSize=12;edgeStyle=orthogonalEdgeStyle;startArrow=none;;endArrow=block;endFill=1;;exitX=1.007;exitY=0.5;exitPerimeter=0;entryX=-0.008;entryY=0.5;entryPerimeter=0;" parent="1" edge="1">
            <mxGeometry width="100" height="100" relative="1" as="geometry">
              <Array as="points">
                <mxPoint x="250" y="264" />
                <mxPoint x="250" y="540" />
              </Array>
              <mxPoint x="144.9240000000001" y="264" as="sourcePoint" />
              <mxPoint x="399.13599999999997" y="540" as="targetPoint" />
            </mxGeometry>
          </mxCell>
        </UserObject>
        <mxCell id="a1okjNHGLK1KyI7zbIEn-14" value="eDoc" style="text;html=1;resizable=0;labelBackgroundColor=#ffffff;align=center;verticalAlign=middle;fontStyle=1;fontColor=#333333;;fontSize=10.666666666666666;" parent="a1okjNHGLK1KyI7zbIEn-13" vertex="1">
          <mxGeometry x="0.585480093676815" relative="1" as="geometry" />
        </mxCell>
        <UserObject label="Search with  Partial Model#" lucidchartObjectId="1EjL6-oOuRn1" id="a1okjNHGLK1KyI7zbIEn-17">
          <mxCell style="html=1;overflow=block;whiteSpace=wrap;;whiteSpace=wrap;fontSize=10;fontColor=#333333;spacing=0;strokeColor=#5e5e5e;strokeOpacity=100;rounded=1;absoluteArcSize=1;arcSize=7;strokeWidth=2;" parent="1" vertex="1" zOrder="11">
            <mxGeometry x="360" y="624" width="108" height="36" as="geometry" />
          </mxCell>
        </UserObject>
        <UserObject label="Search with  Partial Model#" lucidchartObjectId="lHjLN2XoaWTJ" id="a1okjNHGLK1KyI7zbIEn-18">
          <mxCell style="html=1;overflow=block;whiteSpace=wrap;;whiteSpace=wrap;fontSize=10;fontColor=#333333;spacing=0;strokeColor=#5e5e5e;strokeOpacity=100;rounded=1;absoluteArcSize=1;arcSize=7;strokeWidth=2;" parent="1" vertex="1" zOrder="12">
            <mxGeometry x="360" y="711" width="108" height="36" as="geometry" />
          </mxCell>
        </UserObject>
        <UserObject label="Display Models List" lucidchartObjectId="w.kLbMs-QvT~" id="a1okjNHGLK1KyI7zbIEn-19">
          <mxCell style="html=1;overflow=block;whiteSpace=wrap;;whiteSpace=wrap;fontSize=11;fontColor=#333333;spacing=0;strokeColor=#5e5e5e;strokeOpacity=100;rounded=1;absoluteArcSize=1;arcSize=7;strokeWidth=2;" parent="1" vertex="1" zOrder="15">
            <mxGeometry x="720" y="606" width="108" height="84" as="geometry" />
          </mxCell>
        </UserObject>
        <UserObject label="Display Result" lucidchartObjectId="ralL7fFfY5tx" id="a1okjNHGLK1KyI7zbIEn-21">
          <mxCell style="html=1;overflow=block;whiteSpace=wrap;;whiteSpace=wrap;fontSize=11;fontColor=#333333;spacing=0;strokeColor=#5e5e5e;strokeOpacity=100;rounded=1;absoluteArcSize=1;arcSize=7;strokeWidth=2;fillColor=#00CC66;" parent="1" vertex="1" zOrder="21">
            <mxGeometry x="1230" y="606" width="108" height="84" as="geometry" />
          </mxCell>
        </UserObject>
        <UserObject label="" lucidchartObjectId="JalLRUOVvGad" id="a1okjNHGLK1KyI7zbIEn-22">
          <mxCell style="html=1;jettySize=18;whiteSpace=wrap;fontSize=11;strokeColor=#5E5E5E;rounded=1;arcSize=12;edgeStyle=orthogonalEdgeStyle;startArrow=none;;endArrow=block;endFill=1;;exitX=1.008;exitY=0.5;exitPerimeter=0;entryX=-0.012;entryY=0.5;entryPerimeter=0;" parent="1" source="a1okjNHGLK1KyI7zbIEn-17" target="a1okjNHGLK1KyI7zbIEn-43" edge="1">
            <mxGeometry width="100" height="100" relative="1" as="geometry">
              <Array as="points" />
            </mxGeometry>
          </mxCell>
        </UserObject>
        <UserObject label="" lucidchartObjectId="SalLrzvb_-Va" id="a1okjNHGLK1KyI7zbIEn-23">
          <mxCell style="html=1;jettySize=18;whiteSpace=wrap;fontSize=11;strokeColor=#5E5E5E;rounded=1;arcSize=12;edgeStyle=orthogonalEdgeStyle;startArrow=none;;endArrow=block;endFill=1;;exitX=1.013;exitY=0.5;exitPerimeter=0;entryX=-0.008;entryY=0.5;entryPerimeter=0;" parent="1" source="a1okjNHGLK1KyI7zbIEn-45" target="a1okjNHGLK1KyI7zbIEn-21" edge="1">
            <mxGeometry width="100" height="100" relative="1" as="geometry">
              <Array as="points" />
            </mxGeometry>
          </mxCell>
        </UserObject>
        <UserObject label="Display Model List on Left of Page" lucidchartObjectId="qclLVQgFfYEK" id="a1okjNHGLK1KyI7zbIEn-25">
          <mxCell style="html=1;overflow=block;whiteSpace=wrap;;whiteSpace=wrap;fontSize=11;fontColor=#333333;spacing=0;strokeColor=#5e5e5e;strokeOpacity=100;rounded=1;absoluteArcSize=1;arcSize=7;strokeWidth=2;" parent="1" vertex="1" zOrder="29">
            <mxGeometry x="700" y="711" width="108" height="84" as="geometry" />
          </mxCell>
        </UserObject>
        <UserObject label="" lucidchartObjectId="gdlLRa8zKXkX" id="a1okjNHGLK1KyI7zbIEn-26">
          <mxCell style="html=1;jettySize=18;whiteSpace=wrap;fontSize=11;strokeColor=#5E5E5E;rounded=1;arcSize=12;edgeStyle=orthogonalEdgeStyle;startArrow=none;;endArrow=block;endFill=1;;exitX=1.008;exitY=0.5;exitPerimeter=0;entryX=-0.012;entryY=0.5;entryPerimeter=0;" parent="1" source="a1okjNHGLK1KyI7zbIEn-19" target="a1okjNHGLK1KyI7zbIEn-45" edge="1">
            <mxGeometry width="100" height="100" relative="1" as="geometry">
              <Array as="points" />
            </mxGeometry>
          </mxCell>
        </UserObject>
        <mxCell id="a1okjNHGLK1KyI7zbIEn-27" value="Select Models" style="text;html=1;resizable=0;labelBackgroundColor=#ffffff;align=center;verticalAlign=middle;fontStyle=1;fontColor=#333333;;fontSize=10.666666666666666;" parent="a1okjNHGLK1KyI7zbIEn-26" vertex="1">
          <mxGeometry relative="1" as="geometry" />
        </mxCell>
        <UserObject label="" lucidchartObjectId="ydlLN4fiP4Qo" id="a1okjNHGLK1KyI7zbIEn-28">
          <mxCell style="html=1;jettySize=18;whiteSpace=wrap;fontSize=11;strokeColor=#5E5E5E;rounded=1;arcSize=12;edgeStyle=orthogonalEdgeStyle;startArrow=none;;endArrow=block;endFill=1;;exitX=1.008;exitY=0.5;exitPerimeter=0;entryX=0;entryY=0.5;entryDx=0;entryDy=0;" parent="1" source="a1okjNHGLK1KyI7zbIEn-25" target="a1okjNHGLK1KyI7zbIEn-48" edge="1">
            <mxGeometry width="100" height="100" relative="1" as="geometry">
              <Array as="points" />
              <mxPoint x="959" y="726" as="targetPoint" />
            </mxGeometry>
          </mxCell>
        </UserObject>
        <mxCell id="a1okjNHGLK1KyI7zbIEn-29" value="Comapre Models" style="text;html=1;resizable=0;labelBackgroundColor=#ffffff;align=center;verticalAlign=middle;fontStyle=1;fontColor=#333333;;fontSize=10.666666666666666;" parent="a1okjNHGLK1KyI7zbIEn-28" vertex="1">
          <mxGeometry relative="1" as="geometry" />
        </mxCell>
        <UserObject label="Display Result" lucidchartObjectId="jelLRvVD97Lu" id="a1okjNHGLK1KyI7zbIEn-30">
          <mxCell style="html=1;overflow=block;whiteSpace=wrap;;whiteSpace=wrap;fontSize=11;fontColor=#333333;spacing=0;strokeColor=#5e5e5e;strokeOpacity=100;rounded=1;absoluteArcSize=1;arcSize=7;strokeWidth=2;fillColor=#00CC66;" parent="1" vertex="1" zOrder="33">
            <mxGeometry x="1200" y="705" width="108" height="84" as="geometry" />
          </mxCell>
        </UserObject>
        <UserObject label="" lucidchartObjectId="qklLeJbfT2Jp" id="a1okjNHGLK1KyI7zbIEn-38">
          <mxCell style="html=1;jettySize=18;whiteSpace=wrap;fontSize=11;strokeColor=#5E5E5E;rounded=1;arcSize=12;edgeStyle=orthogonalEdgeStyle;startArrow=none;;endArrow=block;endFill=1;;exitX=1.012;exitY=0.467;exitPerimeter=0;entryX=-0.008;entryY=0.5;entryPerimeter=0;" parent="1" source="a1okjNHGLK1KyI7zbIEn-47" target="a1okjNHGLK1KyI7zbIEn-25" edge="1">
            <mxGeometry width="100" height="100" relative="1" as="geometry">
              <Array as="points" />
            </mxGeometry>
          </mxCell>
        </UserObject>
        <UserObject label="Invokes SVA1" lucidchartObjectId="5ElLfKKwqaxA" id="a1okjNHGLK1KyI7zbIEn-43">
          <mxCell style="html=1;overflow=block;whiteSpace=wrap;shape=cylinder;size=0.1;anchorPointDirection=0;boundedLbl=1;;whiteSpace=wrap;fontSize=11;fontColor=#333333;spacing=3;strokeColor=#5e5e5e;strokeOpacity=100;rounded=1;absoluteArcSize=1;arcSize=7;strokeWidth=2;" parent="1" vertex="1" zOrder="52">
            <mxGeometry x="570" y="606" width="72" height="72" as="geometry" />
          </mxCell>
        </UserObject>
        <UserObject label="" lucidchartObjectId="vFlLTLDrGMOa" id="a1okjNHGLK1KyI7zbIEn-44">
          <mxCell style="html=1;jettySize=18;whiteSpace=wrap;fontSize=11;strokeColor=#5E5E5E;rounded=1;arcSize=12;edgeStyle=orthogonalEdgeStyle;startArrow=none;;endArrow=block;endFill=1;;exitX=1.013;exitY=0.5;exitPerimeter=0;entryX=-0.008;entryY=0.429;entryPerimeter=0;" parent="1" source="a1okjNHGLK1KyI7zbIEn-43" target="a1okjNHGLK1KyI7zbIEn-19" edge="1">
            <mxGeometry width="100" height="100" relative="1" as="geometry">
              <Array as="points" />
            </mxGeometry>
          </mxCell>
        </UserObject>
        <UserObject label="Invokes SVA1" lucidchartObjectId="FFlL.7ixTbK2" id="a1okjNHGLK1KyI7zbIEn-45">
          <mxCell style="html=1;overflow=block;whiteSpace=wrap;shape=cylinder;size=0.1;anchorPointDirection=0;boundedLbl=1;;whiteSpace=wrap;fontSize=11;fontColor=#333333;spacing=3;strokeColor=#5e5e5e;strokeOpacity=100;rounded=1;absoluteArcSize=1;arcSize=7;strokeWidth=2;" parent="1" vertex="1" zOrder="54">
            <mxGeometry x="1041" y="612" width="72" height="72" as="geometry" />
          </mxCell>
        </UserObject>
        <UserObject label="Invokes SSI4 &amp;amp; MDM" lucidchartObjectId="d3lL2R2NC.Hh" id="a1okjNHGLK1KyI7zbIEn-47">
          <mxCell style="html=1;overflow=block;whiteSpace=wrap;shape=cylinder;size=0.1;anchorPointDirection=0;boundedLbl=1;;whiteSpace=wrap;fontSize=11;fontColor=#333333;spacing=3;strokeColor=#5e5e5e;strokeOpacity=100;rounded=1;absoluteArcSize=1;arcSize=7;strokeWidth=2;" parent="1" vertex="1" zOrder="56">
            <mxGeometry x="531" y="711" width="78" height="90" as="geometry" />
          </mxCell>
        </UserObject>
        <UserObject label="Invokes SSI4 and MDM" lucidchartObjectId="Y3lLBH1f6Dpu" id="a1okjNHGLK1KyI7zbIEn-48">
          <mxCell style="html=1;overflow=block;whiteSpace=wrap;shape=cylinder;size=0.1;anchorPointDirection=0;boundedLbl=1;;whiteSpace=wrap;fontSize=11;fontColor=#333333;spacing=3;strokeColor=#5e5e5e;strokeOpacity=100;rounded=1;absoluteArcSize=1;arcSize=7;strokeWidth=2;" parent="1" vertex="1" zOrder="58">
            <mxGeometry x="993" y="705" width="78" height="90" as="geometry" />
          </mxCell>
        </UserObject>
        <UserObject label="" lucidchartObjectId=".3lLixVcu4Cx" id="a1okjNHGLK1KyI7zbIEn-49">
          <mxCell style="html=1;jettySize=18;whiteSpace=wrap;fontSize=11;strokeColor=#5E5E5E;rounded=1;arcSize=12;edgeStyle=orthogonalEdgeStyle;startArrow=none;;endArrow=block;endFill=1;;exitX=1.012;exitY=0.5;exitPerimeter=0;entryX=-0.008;entryY=0.536;entryPerimeter=0;" parent="1" source="a1okjNHGLK1KyI7zbIEn-48" target="a1okjNHGLK1KyI7zbIEn-30" edge="1">
            <mxGeometry width="100" height="100" relative="1" as="geometry">
              <Array as="points" />
            </mxGeometry>
          </mxCell>
        </UserObject>
        <UserObject label="" lucidchartObjectId="h4lL6PXlET3E" id="a1okjNHGLK1KyI7zbIEn-50">
          <mxCell style="html=1;jettySize=18;whiteSpace=wrap;fontSize=11;strokeColor=#5E5E5E;rounded=1;arcSize=12;edgeStyle=orthogonalEdgeStyle;startArrow=none;;endArrow=block;endFill=1;;exitX=1.008;exitY=0.5;exitPerimeter=0;entryX=-0.012;entryY=0.2;entryPerimeter=0;" parent="1" source="a1okjNHGLK1KyI7zbIEn-18" target="a1okjNHGLK1KyI7zbIEn-47" edge="1">
            <mxGeometry width="100" height="100" relative="1" as="geometry">
              <Array as="points" />
            </mxGeometry>
          </mxCell>
        </UserObject>
        <UserObject label="" lucidchartObjectId="N5lLcx2AEiov" id="a1okjNHGLK1KyI7zbIEn-53">
          <mxCell style="html=1;jettySize=18;whiteSpace=wrap;fontSize=11;strokeColor=#5E5E5E;rounded=1;arcSize=12;edgeStyle=orthogonalEdgeStyle;startArrow=none;;endArrow=block;endFill=1;;exitX=1.008;exitY=0.5;exitPerimeter=0;entryX=-0.012;entryY=0.5;entryPerimeter=0;" parent="1" source="a1okjNHGLK1KyI7zbIEn-5" target="a1okjNHGLK1KyI7zbIEn-55" edge="1">
            <mxGeometry width="100" height="100" relative="1" as="geometry">
              <Array as="points" />
            </mxGeometry>
          </mxCell>
        </UserObject>
        <mxCell id="a1okjNHGLK1KyI7zbIEn-54" value="Search for Doc" style="text;html=1;resizable=0;labelBackgroundColor=#ffffff;align=center;verticalAlign=middle;fontStyle=1;fontColor=#333333;;fontSize=10.666666666666666;" parent="a1okjNHGLK1KyI7zbIEn-53" vertex="1">
          <mxGeometry relative="1" as="geometry" />
        </mxCell>
        <UserObject label="Invoke SVA1 and MDM" lucidchartObjectId="U5lLO8k~4eli" id="a1okjNHGLK1KyI7zbIEn-55">
          <mxCell style="html=1;overflow=block;whiteSpace=wrap;shape=cylinder;size=0.1;anchorPointDirection=0;boundedLbl=1;;whiteSpace=wrap;fontSize=11;fontColor=#333333;spacing=3;strokeColor=#5e5e5e;strokeOpacity=100;rounded=1;absoluteArcSize=1;arcSize=7;strokeWidth=2;" parent="1" vertex="1" zOrder="64">
            <mxGeometry x="600" y="66" width="72" height="72" as="geometry" />
          </mxCell>
        </UserObject>
        <mxCell id="a1okjNHGLK1KyI7zbIEn-56" style="edgeStyle=orthogonalEdgeStyle;rounded=0;orthogonalLoop=1;jettySize=auto;html=1;exitX=1;exitY=0.5;exitDx=0;exitDy=0;entryX=0;entryY=0.5;entryDx=0;entryDy=0;" parent="1" source="a1okjNHGLK1KyI7zbIEn-57" target="a1okjNHGLK1KyI7zbIEn-93" edge="1">
          <mxGeometry relative="1" as="geometry" />
        </mxCell>
        <UserObject label="Display Document List" lucidchartObjectId="f6lL8H.bw~57" id="a1okjNHGLK1KyI7zbIEn-57">
          <mxCell style="html=1;overflow=block;whiteSpace=wrap;;whiteSpace=wrap;fontSize=11;fontColor=#333333;spacing=0;strokeColor=#5e5e5e;strokeOpacity=100;rounded=1;absoluteArcSize=1;arcSize=7;strokeWidth=2;" parent="1" vertex="1" zOrder="65">
            <mxGeometry x="732" y="66" width="118" height="84" as="geometry" />
          </mxCell>
        </UserObject>
        <UserObject label="" lucidchartObjectId="46lL.0iiIbT6" id="a1okjNHGLK1KyI7zbIEn-58">
          <mxCell style="html=1;jettySize=18;whiteSpace=wrap;fontSize=11;strokeColor=#5E5E5E;rounded=1;arcSize=12;edgeStyle=orthogonalEdgeStyle;startArrow=none;;endArrow=block;endFill=1;;exitX=1.013;exitY=0.5;exitPerimeter=0;entryX=-0.008;entryY=0.429;entryPerimeter=0;" parent="1" source="a1okjNHGLK1KyI7zbIEn-55" target="a1okjNHGLK1KyI7zbIEn-57" edge="1">
            <mxGeometry width="100" height="100" relative="1" as="geometry">
              <Array as="points" />
            </mxGeometry>
          </mxCell>
        </UserObject>
        <UserObject label="Display Document in New Tab " lucidchartObjectId="q7lL51Yi-YE-" id="a1okjNHGLK1KyI7zbIEn-59">
          <mxCell style="html=1;overflow=block;whiteSpace=wrap;;whiteSpace=wrap;fontSize=11;fontColor=#333333;spacing=0;strokeColor=#5E5E5E;rounded=1;absoluteArcSize=1;arcSize=7;strokeWidth=2;" parent="1" vertex="1" zOrder="68">
            <mxGeometry x="1068" y="24" width="108" height="84" as="geometry" />
          </mxCell>
        </UserObject>
        <UserObject label="Invoke Salsify/Old R drive&amp;nbsp;" lucidchartObjectId="V7lLfkhFgSl-" id="a1okjNHGLK1KyI7zbIEn-60">
          <mxCell style="html=1;overflow=block;whiteSpace=wrap;shape=cylinder;size=0.1;anchorPointDirection=0;boundedLbl=1;;whiteSpace=wrap;fontSize=11;fontColor=#333333;spacing=3;strokeColor=#5e5e5e;strokeOpacity=100;rounded=1;absoluteArcSize=1;arcSize=7;strokeWidth=2;" parent="1" vertex="1" zOrder="69">
            <mxGeometry x="927" y="30" width="72" height="72" as="geometry" />
          </mxCell>
        </UserObject>
        <UserObject label="" lucidchartObjectId="i8lLnyoPt401" id="a1okjNHGLK1KyI7zbIEn-61">
          <mxCell style="html=1;jettySize=18;whiteSpace=wrap;fontSize=11;strokeColor=#5E5E5E;rounded=1;arcSize=12;edgeStyle=orthogonalEdgeStyle;startArrow=none;;endArrow=block;endFill=1;;exitX=1.008;exitY=0.5;exitPerimeter=0;entryX=-0.012;entryY=0.5;entryPerimeter=0;" parent="1" source="a1okjNHGLK1KyI7zbIEn-57" target="a1okjNHGLK1KyI7zbIEn-60" edge="1">
            <mxGeometry width="100" height="100" relative="1" as="geometry">
              <Array as="points" />
            </mxGeometry>
          </mxCell>
        </UserObject>
        <UserObject label="" lucidchartObjectId="m8lL5bD0e4uA" id="a1okjNHGLK1KyI7zbIEn-62">
          <mxCell style="html=1;jettySize=18;whiteSpace=wrap;fontSize=11;strokeColor=#5E5E5E;rounded=1;arcSize=12;edgeStyle=orthogonalEdgeStyle;startArrow=none;;endArrow=block;endFill=1;;exitX=1.013;exitY=0.5;exitPerimeter=0;entryX=-0.008;entryY=0.5;entryPerimeter=0;" parent="1" source="a1okjNHGLK1KyI7zbIEn-60" target="a1okjNHGLK1KyI7zbIEn-59" edge="1">
            <mxGeometry width="100" height="100" relative="1" as="geometry">
              <Array as="points" />
            </mxGeometry>
          </mxCell>
        </UserObject>
        <mxCell id="a1okjNHGLK1KyI7zbIEn-63" style="edgeStyle=orthogonalEdgeStyle;rounded=0;orthogonalLoop=1;jettySize=auto;html=1;exitX=1;exitY=0.5;exitDx=0;exitDy=0;entryX=0;entryY=0.5;entryDx=0;entryDy=0;" parent="1" source="a1okjNHGLK1KyI7zbIEn-64" target="a1okjNHGLK1KyI7zbIEn-70" edge="1">
          <mxGeometry relative="1" as="geometry">
            <mxPoint x="1300" y="192" as="targetPoint" />
          </mxGeometry>
        </mxCell>
        <UserObject label="Insert into&amp;nbsp;&lt;span style=&quot;line-height: 107% ; font-family: &amp;#34;calibri&amp;#34; , sans-serif&quot;&gt;&lt;font style=&quot;font-size: 10px&quot;&gt;CI.CILIT_CALL&lt;/font&gt;&lt;/span&gt;" lucidchartObjectId="f9lLoPnGk6is" id="a1okjNHGLK1KyI7zbIEn-64">
          <mxCell style="html=1;overflow=block;whiteSpace=wrap;shape=cylinder;size=0.1;anchorPointDirection=0;boundedLbl=1;;whiteSpace=wrap;fontSize=11;fontColor=#333333;spacing=3;strokeColor=#5e5e5e;strokeOpacity=100;rounded=1;absoluteArcSize=1;arcSize=7;strokeWidth=2;" parent="1" vertex="1" zOrder="73">
            <mxGeometry x="1190" y="268" width="76" height="72" as="geometry" />
          </mxCell>
        </UserObject>
        <mxCell id="a1okjNHGLK1KyI7zbIEn-65" style="edgeStyle=orthogonalEdgeStyle;rounded=0;orthogonalLoop=1;jettySize=auto;html=1;exitX=0.5;exitY=1;exitDx=0;exitDy=0;entryX=0.85;entryY=0.05;entryDx=0;entryDy=0;entryPerimeter=0;" parent="1" source="a1okjNHGLK1KyI7zbIEn-66" target="a1okjNHGLK1KyI7zbIEn-64" edge="1">
          <mxGeometry relative="1" as="geometry" />
        </mxCell>
        <UserObject label="Select Consumer" lucidchartObjectId="B9lLTGhqk9ZV" id="a1okjNHGLK1KyI7zbIEn-66">
          <mxCell style="html=1;overflow=block;whiteSpace=wrap;;whiteSpace=wrap;fontSize=11;fontColor=#333333;spacing=0;strokeColor=#5e5e5e;strokeOpacity=100;rounded=1;absoluteArcSize=1;arcSize=7;strokeWidth=2;" parent="1" vertex="1" zOrder="74">
            <mxGeometry x="1372" y="128" width="108" height="84" as="geometry" />
          </mxCell>
        </UserObject>
        <mxCell id="a1okjNHGLK1KyI7zbIEn-67" style="edgeStyle=orthogonalEdgeStyle;rounded=0;orthogonalLoop=1;jettySize=auto;html=1;exitX=1;exitY=0.5;exitDx=0;exitDy=0;entryX=0;entryY=0.5;entryDx=0;entryDy=0;" parent="1" source="a1okjNHGLK1KyI7zbIEn-68" target="a1okjNHGLK1KyI7zbIEn-66" edge="1">
          <mxGeometry relative="1" as="geometry" />
        </mxCell>
        <UserObject label="Invoke CN1" lucidchartObjectId="I_lLpCg9F2I." id="a1okjNHGLK1KyI7zbIEn-68">
          <mxCell style="html=1;overflow=block;whiteSpace=wrap;shape=cylinder;size=0.1;anchorPointDirection=0;boundedLbl=1;;whiteSpace=wrap;fontSize=11;fontColor=#333333;spacing=3;strokeColor=#5e5e5e;strokeOpacity=100;rounded=1;absoluteArcSize=1;arcSize=7;strokeWidth=2;" parent="1" vertex="1" zOrder="75">
            <mxGeometry x="1248" y="134" width="72" height="72" as="geometry" />
          </mxCell>
        </UserObject>
        <mxCell id="a1okjNHGLK1KyI7zbIEn-69" style="edgeStyle=orthogonalEdgeStyle;rounded=0;orthogonalLoop=1;jettySize=auto;html=1;exitX=0.5;exitY=1;exitDx=0;exitDy=0;entryX=0.5;entryY=1;entryDx=0;entryDy=0;" parent="1" source="a1okjNHGLK1KyI7zbIEn-70" target="a1okjNHGLK1KyI7zbIEn-7" edge="1">
          <mxGeometry relative="1" as="geometry">
            <Array as="points">
              <mxPoint x="1422" y="380" />
              <mxPoint x="425" y="380" />
            </Array>
          </mxGeometry>
        </mxCell>
        <UserObject label="&lt;font style=&quot;font-size: 10px&quot;&gt;Any more orders ?&lt;/font&gt;" lucidchartObjectId="8_lLlx0jThdN" id="a1okjNHGLK1KyI7zbIEn-70">
          <mxCell style="html=1;overflow=block;whiteSpace=wrap;rhombus;whiteSpace=wrap;fontSize=11;fontColor=#333333;spacing=3;strokeColor=#5e5e5e;strokeOpacity=100;rounded=1;absoluteArcSize=1;arcSize=7;strokeWidth=2;" parent="1" vertex="1" zOrder="76">
            <mxGeometry x="1480" y="228" width="96" height="72" as="geometry" />
          </mxCell>
        </UserObject>
        <UserObject label="" lucidchartObjectId="l.lLKTMPlHPw" id="a1okjNHGLK1KyI7zbIEn-71">
          <mxCell style="html=1;jettySize=18;whiteSpace=wrap;fontSize=10;fontColor=#333333;fontStyle=1;strokeColor=#5E5E5E;rounded=1;arcSize=12;edgeStyle=orthogonalEdgeStyle;startArrow=none;;endArrow=block;endFill=1;;exitX=0.5;exitY=0.006;exitPerimeter=0;entryX=0.5;entryY=-0.025;entryPerimeter=0;" parent="1" source="a1okjNHGLK1KyI7zbIEn-70" target="a1okjNHGLK1KyI7zbIEn-5" edge="1">
            <mxGeometry width="100" height="100" relative="1" as="geometry">
              <Array as="points">
                <mxPoint x="1510" y="228" />
                <mxPoint x="1510" y="18" />
                <mxPoint x="438" y="18" />
              </Array>
            </mxGeometry>
          </mxCell>
        </UserObject>
        <mxCell id="a1okjNHGLK1KyI7zbIEn-72" value="Yes" style="text;html=1;resizable=0;labelBackgroundColor=#ffffff;align=center;verticalAlign=middle;fontStyle=1;fontColor=#333333;;fontSize=10.666666666666666;" parent="a1okjNHGLK1KyI7zbIEn-71" vertex="1">
          <mxGeometry relative="1" as="geometry" />
        </mxCell>
        <UserObject label="" lucidchartObjectId="I.lL2wCSHQkV" id="a1okjNHGLK1KyI7zbIEn-73">
          <mxCell style="html=1;jettySize=18;whiteSpace=wrap;fontSize=10;fontColor=#333333;fontStyle=1;strokeColor=#5E5E5E;rounded=1;arcSize=12;edgeStyle=orthogonalEdgeStyle;startArrow=none;;endArrow=block;endFill=1;;exitX=0.991;exitY=0.5;exitPerimeter=0;entryX=-0.008;entryY=0.5;entryPerimeter=0;" parent="1" source="a1okjNHGLK1KyI7zbIEn-70" target="a1okjNHGLK1KyI7zbIEn-76" edge="1">
            <mxGeometry width="100" height="100" relative="1" as="geometry">
              <Array as="points" />
            </mxGeometry>
          </mxCell>
        </UserObject>
        <mxCell id="a1okjNHGLK1KyI7zbIEn-74" value="No" style="text;html=1;resizable=0;labelBackgroundColor=#ffffff;align=center;verticalAlign=middle;fontStyle=1;fontColor=#333333;;fontSize=10.666666666666666;" parent="a1okjNHGLK1KyI7zbIEn-73" vertex="1">
          <mxGeometry relative="1" as="geometry" />
        </mxCell>
        <mxCell id="a1okjNHGLK1KyI7zbIEn-75" style="edgeStyle=orthogonalEdgeStyle;rounded=0;orthogonalLoop=1;jettySize=auto;html=1;exitX=1;exitY=0.5;exitDx=0;exitDy=0;entryX=0;entryY=0.5;entryDx=0;entryDy=0;" parent="1" source="a1okjNHGLK1KyI7zbIEn-76" target="a1okjNHGLK1KyI7zbIEn-90" edge="1">
          <mxGeometry relative="1" as="geometry" />
        </mxCell>
        <UserObject label="Order Placed" lucidchartObjectId="R.lLBaoUMZ3C" id="a1okjNHGLK1KyI7zbIEn-76">
          <mxCell style="html=1;overflow=block;whiteSpace=wrap;;whiteSpace=wrap;fontSize=11;fontColor=#333333;spacing=0;strokeColor=#5e5e5e;strokeOpacity=100;rounded=1;absoluteArcSize=1;arcSize=7;strokeWidth=2;fillColor=#3399FF;" parent="1" vertex="1" zOrder="79">
            <mxGeometry x="1590" y="50" width="100" height="84" as="geometry" />
          </mxCell>
        </UserObject>
        <mxCell id="a1okjNHGLK1KyI7zbIEn-77" value="View Document on click" style="text;html=1;align=center;verticalAlign=middle;resizable=0;points=[];autosize=1;" parent="1" vertex="1">
          <mxGeometry x="787" y="46" width="140" height="20" as="geometry" />
        </mxCell>
        <mxCell id="a1okjNHGLK1KyI7zbIEn-79" style="edgeStyle=orthogonalEdgeStyle;rounded=0;orthogonalLoop=1;jettySize=auto;html=1;exitX=1;exitY=0.5;exitDx=0;exitDy=0;" parent="1" source="a1okjNHGLK1KyI7zbIEn-80" edge="1">
          <mxGeometry relative="1" as="geometry">
            <mxPoint x="690" y="316" as="targetPoint" />
          </mxGeometry>
        </mxCell>
        <UserObject label="Invoke CN1" lucidchartObjectId="I_lLpCg9F2I." id="a1okjNHGLK1KyI7zbIEn-80">
          <mxCell style="html=1;overflow=block;whiteSpace=wrap;shape=cylinder;size=0.1;anchorPointDirection=0;boundedLbl=1;;whiteSpace=wrap;fontSize=11;fontColor=#333333;spacing=3;strokeColor=#5e5e5e;strokeOpacity=100;rounded=1;absoluteArcSize=1;arcSize=7;strokeWidth=2;" parent="1" vertex="1" zOrder="75">
            <mxGeometry x="578" y="280" width="72" height="72" as="geometry" />
          </mxCell>
        </UserObject>
        <mxCell id="a1okjNHGLK1KyI7zbIEn-81" style="edgeStyle=orthogonalEdgeStyle;rounded=0;orthogonalLoop=1;jettySize=auto;html=1;exitX=1;exitY=0.5;exitDx=0;exitDy=0;" parent="1" source="a1okjNHGLK1KyI7zbIEn-83" edge="1">
          <mxGeometry relative="1" as="geometry">
            <mxPoint x="960" y="322" as="targetPoint" />
            <Array as="points">
              <mxPoint x="880" y="322" />
              <mxPoint x="880" y="322" />
            </Array>
          </mxGeometry>
        </mxCell>
        <mxCell id="a1okjNHGLK1KyI7zbIEn-82" value="Select Type of order Misc/sales" style="edgeLabel;html=1;align=center;verticalAlign=middle;resizable=0;points=[];" parent="a1okjNHGLK1KyI7zbIEn-81" vertex="1" connectable="0">
          <mxGeometry x="-0.0526" y="18" relative="1" as="geometry">
            <mxPoint x="10" y="6" as="offset" />
          </mxGeometry>
        </mxCell>
        <UserObject label="Select Consumer" lucidchartObjectId="B9lLTGhqk9ZV" id="a1okjNHGLK1KyI7zbIEn-83">
          <mxCell style="html=1;overflow=block;whiteSpace=wrap;;whiteSpace=wrap;fontSize=11;fontColor=#333333;spacing=0;strokeColor=#5e5e5e;strokeOpacity=100;rounded=1;absoluteArcSize=1;arcSize=7;strokeWidth=2;" parent="1" vertex="1" zOrder="74">
            <mxGeometry x="696" y="280" width="108" height="84" as="geometry" />
          </mxCell>
        </UserObject>
        <mxCell id="a1okjNHGLK1KyI7zbIEn-84" style="edgeStyle=orthogonalEdgeStyle;rounded=0;orthogonalLoop=1;jettySize=auto;html=1;exitX=1;exitY=0.5;exitDx=0;exitDy=0;" parent="1" source="a1okjNHGLK1KyI7zbIEn-85" edge="1">
          <mxGeometry relative="1" as="geometry">
            <mxPoint x="1190" y="316" as="targetPoint" />
          </mxGeometry>
        </mxCell>
        <UserObject label="Invoke SVA1" lucidchartObjectId="I_lLpCg9F2I." id="a1okjNHGLK1KyI7zbIEn-85">
          <mxCell style="html=1;overflow=block;whiteSpace=wrap;shape=cylinder;size=0.1;anchorPointDirection=0;boundedLbl=1;;whiteSpace=wrap;fontSize=11;fontColor=#333333;spacing=3;strokeColor=#5e5e5e;strokeOpacity=100;rounded=1;absoluteArcSize=1;arcSize=7;strokeWidth=2;" parent="1" vertex="1" zOrder="75">
            <mxGeometry x="969" y="280" width="72" height="72" as="geometry" />
          </mxCell>
        </UserObject>
        <mxCell id="a1okjNHGLK1KyI7zbIEn-86" value="Mono" style="text;html=1;align=center;verticalAlign=middle;resizable=0;points=[];autosize=1;" parent="1" vertex="1">
          <mxGeometry x="865" y="320" width="50" height="20" as="geometry" />
        </mxCell>
        <mxCell id="a1okjNHGLK1KyI7zbIEn-87" value="Enter Phone" style="text;html=1;align=center;verticalAlign=middle;resizable=0;points=[];autosize=1;" parent="1" vertex="1">
          <mxGeometry x="480" y="320" width="80" height="20" as="geometry" />
        </mxCell>
        <mxCell id="a1okjNHGLK1KyI7zbIEn-88" value="OrderLiterature" style="text;html=1;align=center;verticalAlign=middle;resizable=0;points=[];autosize=1;" parent="1" vertex="1">
          <mxGeometry x="1330" y="212" width="100" height="20" as="geometry" />
        </mxCell>
        <mxCell id="a1okjNHGLK1KyI7zbIEn-89" value="Sales Literature" style="text;html=1;align=center;verticalAlign=middle;resizable=0;points=[];autosize=1;" parent="1" vertex="1">
          <mxGeometry x="1320" y="332" width="100" height="20" as="geometry" />
        </mxCell>
        <UserObject label="Send email to DL with Document and Label details everyday from&amp;nbsp;&lt;span style=&quot;font-size: 11.0pt ; line-height: 107% ; font-family: &amp;#34;calibri&amp;#34; , sans-serif&quot;&gt;CI.CILIT table based on sysdate&lt;/span&gt;" lucidchartObjectId="q7lL51Yi-YE-" id="a1okjNHGLK1KyI7zbIEn-90">
          <mxCell style="html=1;overflow=block;whiteSpace=wrap;;whiteSpace=wrap;fontSize=11;fontColor=#333333;spacing=0;strokeColor=#5E5E5E;rounded=1;absoluteArcSize=1;arcSize=7;strokeWidth=2;" parent="1" vertex="1" zOrder="68">
            <mxGeometry x="1700" y="228" width="170" height="158" as="geometry" />
          </mxCell>
        </UserObject>
        <mxCell id="a1okjNHGLK1KyI7zbIEn-91" style="edgeStyle=orthogonalEdgeStyle;rounded=0;orthogonalLoop=1;jettySize=auto;html=1;exitX=0.5;exitY=1;exitDx=0;exitDy=0;entryX=0.5;entryY=1;entryDx=0;entryDy=0;" parent="1" source="a1okjNHGLK1KyI7zbIEn-93" target="a1okjNHGLK1KyI7zbIEn-57" edge="1">
          <mxGeometry relative="1" as="geometry" />
        </mxCell>
        <mxCell id="a1okjNHGLK1KyI7zbIEn-92" style="edgeStyle=orthogonalEdgeStyle;rounded=0;orthogonalLoop=1;jettySize=auto;html=1;exitX=1;exitY=0.5;exitDx=0;exitDy=0;" parent="1" source="a1okjNHGLK1KyI7zbIEn-93" edge="1">
          <mxGeometry relative="1" as="geometry">
            <mxPoint x="1050" y="191.52941176470586" as="targetPoint" />
          </mxGeometry>
        </mxCell>
        <UserObject label="Check Doctype" lucidchartObjectId="8_lLlx0jThdN" id="a1okjNHGLK1KyI7zbIEn-93">
          <mxCell style="html=1;overflow=block;whiteSpace=wrap;rhombus;whiteSpace=wrap;fontSize=11;fontColor=#333333;spacing=3;strokeColor=#5e5e5e;strokeOpacity=100;rounded=1;absoluteArcSize=1;arcSize=7;strokeWidth=2;" parent="1" vertex="1" zOrder="76">
            <mxGeometry x="864" y="156" width="96" height="72" as="geometry" />
          </mxCell>
        </UserObject>
        <mxCell id="a1okjNHGLK1KyI7zbIEn-94" value="User /Instruction Manual" style="text;html=1;align=center;verticalAlign=middle;resizable=0;points=[];autosize=1;" parent="1" vertex="1">
          <mxGeometry x="918" y="220" width="150" height="20" as="geometry" />
        </mxCell>
        <mxCell id="a1okjNHGLK1KyI7zbIEn-95" value="Verify/Place order" style="text;html=1;align=center;verticalAlign=middle;resizable=0;points=[];autosize=1;" parent="1" vertex="1">
          <mxGeometry x="865" y="120" width="110" height="20" as="geometry" />
        </mxCell>
        <mxCell id="a1okjNHGLK1KyI7zbIEn-96" value="NO" style="text;html=1;align=center;verticalAlign=middle;resizable=0;points=[];autosize=1;" parent="1" vertex="1">
          <mxGeometry x="834" y="228" width="30" height="20" as="geometry" />
        </mxCell>
        <mxCell id="a1okjNHGLK1KyI7zbIEn-97" style="edgeStyle=orthogonalEdgeStyle;rounded=0;orthogonalLoop=1;jettySize=auto;html=1;exitX=1;exitY=0.5;exitDx=0;exitDy=0;entryX=0;entryY=0.3;entryDx=0;entryDy=0;" parent="1" source="a1okjNHGLK1KyI7zbIEn-98" target="a1okjNHGLK1KyI7zbIEn-68" edge="1">
          <mxGeometry relative="1" as="geometry" />
        </mxCell>
        <UserObject label="Search consumer by phone" lucidchartObjectId="B9lLTGhqk9ZV" id="a1okjNHGLK1KyI7zbIEn-98">
          <mxCell style="html=1;overflow=block;whiteSpace=wrap;;whiteSpace=wrap;fontSize=11;fontColor=#333333;spacing=0;strokeColor=#5e5e5e;strokeOpacity=100;rounded=1;absoluteArcSize=1;arcSize=7;strokeWidth=2;" parent="1" vertex="1" zOrder="74">
            <mxGeometry x="1060" y="144" width="108" height="84" as="geometry" />
          </mxCell>
        </UserObject>
        <mxCell id="a1okjNHGLK1KyI7zbIEn-99" value="Run Batch Job/Invoke immediately" style="text;html=1;align=center;verticalAlign=middle;resizable=0;points=[];autosize=1;" parent="1" vertex="1">
          <mxGeometry x="1630" y="156" width="200" height="20" as="geometry" />
        </mxCell>
        <mxCell id="a1okjNHGLK1KyI7zbIEn-101" value="ModelFeature" style="endArrow=classic;html=1;exitX=1;exitY=0.5;exitDx=0;exitDy=0;" parent="1" source="a1okjNHGLK1KyI7zbIEn-103" edge="1">
          <mxGeometry relative="1" as="geometry">
            <mxPoint x="260" y="728.41" as="sourcePoint" />
            <mxPoint x="360" y="728.41" as="targetPoint" />
          </mxGeometry>
        </mxCell>
        <mxCell id="a1okjNHGLK1KyI7zbIEn-103" value="ModelFeature UI" style="rounded=1;whiteSpace=wrap;html=1;" parent="1" vertex="1">
          <mxGeometry x="80" y="699" width="120" height="60" as="geometry" />
        </mxCell>
        <mxCell id="a1okjNHGLK1KyI7zbIEn-105" value="CINDIX UI" style="rounded=1;whiteSpace=wrap;html=1;" parent="1" vertex="1">
          <mxGeometry x="80" y="612" width="120" height="60" as="geometry" />
        </mxCell>
        <mxCell id="a1okjNHGLK1KyI7zbIEn-109" value="" style="endArrow=classic;html=1;entryX=0;entryY=0.5;entryDx=0;entryDy=0;" parent="1" target="a1okjNHGLK1KyI7zbIEn-17" edge="1">
          <mxGeometry relative="1" as="geometry">
            <mxPoint x="200" y="641.41" as="sourcePoint" />
            <mxPoint x="300" y="641.41" as="targetPoint" />
            <Array as="points">
              <mxPoint x="260" y="641" />
            </Array>
          </mxGeometry>
        </mxCell>
        <mxCell id="a1okjNHGLK1KyI7zbIEn-110" value="CINDIX" style="edgeLabel;resizable=0;html=1;align=center;verticalAlign=middle;" parent="a1okjNHGLK1KyI7zbIEn-109" connectable="0" vertex="1">
          <mxGeometry relative="1" as="geometry" />
        </mxCell>
        <mxCell id="a1okjNHGLK1KyI7zbIEn-136" style="edgeStyle=orthogonalEdgeStyle;rounded=0;orthogonalLoop=1;jettySize=auto;html=1;exitX=1;exitY=0.5;exitDx=0;exitDy=0;" parent="1" source="a1okjNHGLK1KyI7zbIEn-111" target="a1okjNHGLK1KyI7zbIEn-137" edge="1">
          <mxGeometry relative="1" as="geometry">
            <mxPoint x="240" y="-50" as="targetPoint" />
          </mxGeometry>
        </mxCell>
        <mxCell id="a1okjNHGLK1KyI7zbIEn-143" value="eDoc" style="edgeLabel;html=1;align=center;verticalAlign=middle;resizable=0;points=[];" parent="a1okjNHGLK1KyI7zbIEn-136" vertex="1" connectable="0">
          <mxGeometry x="0.5218" y="1" relative="1" as="geometry">
            <mxPoint y="1" as="offset" />
          </mxGeometry>
        </mxCell>
        <mxCell id="a1okjNHGLK1KyI7zbIEn-111" value="eDoc UI" style="rounded=1;whiteSpace=wrap;html=1;" parent="1" vertex="1">
          <mxGeometry x="30" y="238" width="120" height="60" as="geometry" />
        </mxCell>
        <mxCell id="a1okjNHGLK1KyI7zbIEn-112" value="Send to DriView for printing" style="rounded=0;whiteSpace=wrap;html=1;" parent="1" vertex="1">
          <mxGeometry x="1950" y="250" width="120" height="60" as="geometry" />
        </mxCell>
        <mxCell id="a1okjNHGLK1KyI7zbIEn-113" value="" style="endArrow=classic;html=1;" parent="1" edge="1">
          <mxGeometry width="50" height="50" relative="1" as="geometry">
            <mxPoint x="1870" y="279.99999999999994" as="sourcePoint" />
            <mxPoint x="1950" y="279.99999999999994" as="targetPoint" />
          </mxGeometry>
        </mxCell>
        <mxCell id="a1okjNHGLK1KyI7zbIEn-116" style="edgeStyle=orthogonalEdgeStyle;rounded=0;orthogonalLoop=1;jettySize=auto;html=1;exitX=1;exitY=0.5;exitDx=0;exitDy=0;entryX=0;entryY=0.5;entryDx=0;entryDy=0;" parent="1" source="a1okjNHGLK1KyI7zbIEn-114" target="a1okjNHGLK1KyI7zbIEn-118" edge="1">
          <mxGeometry relative="1" as="geometry">
            <mxPoint x="690" y="535" as="targetPoint" />
          </mxGeometry>
        </mxCell>
        <mxCell id="a1okjNHGLK1KyI7zbIEn-114" value="Label Details" style="rounded=1;whiteSpace=wrap;html=1;" parent="1" vertex="1">
          <mxGeometry x="400" y="510" width="120" height="50" as="geometry" />
        </mxCell>
        <mxCell id="a1okjNHGLK1KyI7zbIEn-122" style="edgeStyle=orthogonalEdgeStyle;rounded=0;orthogonalLoop=1;jettySize=auto;html=1;exitX=1;exitY=0.5;exitDx=0;exitDy=0;entryX=0;entryY=0.5;entryDx=0;entryDy=0;" parent="1" source="a1okjNHGLK1KyI7zbIEn-118" target="a1okjNHGLK1KyI7zbIEn-121" edge="1">
          <mxGeometry relative="1" as="geometry" />
        </mxCell>
        <UserObject label="Invoke CN1" lucidchartObjectId="I_lLpCg9F2I." id="a1okjNHGLK1KyI7zbIEn-118">
          <mxCell style="html=1;overflow=block;whiteSpace=wrap;shape=cylinder;size=0.1;anchorPointDirection=0;boundedLbl=1;;whiteSpace=wrap;fontSize=11;fontColor=#333333;spacing=3;strokeColor=#5e5e5e;strokeOpacity=100;rounded=1;absoluteArcSize=1;arcSize=7;strokeWidth=2;" parent="1" vertex="1" zOrder="75">
            <mxGeometry x="650" y="499" width="72" height="72" as="geometry" />
          </mxCell>
        </UserObject>
        <mxCell id="a1okjNHGLK1KyI7zbIEn-119" value="Search with Phone" style="text;html=1;align=center;verticalAlign=middle;resizable=0;points=[];autosize=1;" parent="1" vertex="1">
          <mxGeometry x="531" y="510" width="120" height="20" as="geometry" />
        </mxCell>
        <mxCell id="a1okjNHGLK1KyI7zbIEn-125" style="edgeStyle=orthogonalEdgeStyle;rounded=0;orthogonalLoop=1;jettySize=auto;html=1;exitX=1;exitY=0.5;exitDx=0;exitDy=0;entryX=0;entryY=0.5;entryDx=0;entryDy=0;" parent="1" source="a1okjNHGLK1KyI7zbIEn-121" target="a1okjNHGLK1KyI7zbIEn-124" edge="1">
          <mxGeometry relative="1" as="geometry" />
        </mxCell>
        <UserObject label="Invoke sva1" lucidchartObjectId="I_lLpCg9F2I." id="a1okjNHGLK1KyI7zbIEn-121">
          <mxCell style="html=1;overflow=block;whiteSpace=wrap;shape=cylinder;size=0.1;anchorPointDirection=0;boundedLbl=1;;whiteSpace=wrap;fontSize=11;fontColor=#333333;spacing=3;strokeColor=#5e5e5e;strokeOpacity=100;rounded=1;absoluteArcSize=1;arcSize=7;strokeWidth=2;" parent="1" vertex="1" zOrder="75">
            <mxGeometry x="821" y="499" width="72" height="72" as="geometry" />
          </mxCell>
        </UserObject>
        <mxCell id="a1okjNHGLK1KyI7zbIEn-123" value="search with consumer No" style="text;html=1;align=center;verticalAlign=middle;resizable=0;points=[];autosize=1;" parent="1" vertex="1">
          <mxGeometry x="700" y="479" width="150" height="20" as="geometry" />
        </mxCell>
        <mxCell id="a1okjNHGLK1KyI7zbIEn-128" style="edgeStyle=orthogonalEdgeStyle;rounded=0;orthogonalLoop=1;jettySize=auto;html=1;exitX=1;exitY=0.5;exitDx=0;exitDy=0;entryX=0;entryY=0.5;entryDx=0;entryDy=0;" parent="1" source="a1okjNHGLK1KyI7zbIEn-124" target="a1okjNHGLK1KyI7zbIEn-126" edge="1">
          <mxGeometry relative="1" as="geometry" />
        </mxCell>
        <mxCell id="a1okjNHGLK1KyI7zbIEn-129" style="edgeStyle=orthogonalEdgeStyle;rounded=0;orthogonalLoop=1;jettySize=auto;html=1;exitX=1;exitY=0.5;exitDx=0;exitDy=0;entryX=0;entryY=0.75;entryDx=0;entryDy=0;" parent="1" source="a1okjNHGLK1KyI7zbIEn-124" target="a1okjNHGLK1KyI7zbIEn-127" edge="1">
          <mxGeometry relative="1" as="geometry" />
        </mxCell>
        <UserObject label="Display Result" lucidchartObjectId="ralL7fFfY5tx" id="a1okjNHGLK1KyI7zbIEn-124">
          <mxCell style="html=1;overflow=block;whiteSpace=wrap;;whiteSpace=wrap;fontSize=11;fontColor=#333333;spacing=0;strokeColor=#5e5e5e;strokeOpacity=100;rounded=1;absoluteArcSize=1;arcSize=7;strokeWidth=2;fillColor=#00CC66;" parent="1" vertex="1" zOrder="21">
            <mxGeometry x="1005" y="493" width="108" height="84" as="geometry" />
          </mxCell>
        </UserObject>
        <mxCell id="a1okjNHGLK1KyI7zbIEn-131" style="edgeStyle=orthogonalEdgeStyle;rounded=0;orthogonalLoop=1;jettySize=auto;html=1;exitX=1;exitY=0.5;exitDx=0;exitDy=0;entryX=0;entryY=0.3;entryDx=0;entryDy=0;" parent="1" source="a1okjNHGLK1KyI7zbIEn-126" target="a1okjNHGLK1KyI7zbIEn-130" edge="1">
          <mxGeometry relative="1" as="geometry" />
        </mxCell>
        <mxCell id="a1okjNHGLK1KyI7zbIEn-126" value="Update Note" style="rounded=1;whiteSpace=wrap;html=1;" parent="1" vertex="1">
          <mxGeometry x="1180" y="410" width="108" height="50" as="geometry" />
        </mxCell>
        <mxCell id="a1okjNHGLK1KyI7zbIEn-133" style="edgeStyle=orthogonalEdgeStyle;rounded=0;orthogonalLoop=1;jettySize=auto;html=1;exitX=1;exitY=0.5;exitDx=0;exitDy=0;entryX=0;entryY=0.3;entryDx=0;entryDy=0;" parent="1" source="a1okjNHGLK1KyI7zbIEn-127" target="a1okjNHGLK1KyI7zbIEn-130" edge="1">
          <mxGeometry relative="1" as="geometry" />
        </mxCell>
        <mxCell id="a1okjNHGLK1KyI7zbIEn-127" value="Cancel Pub" style="rounded=1;whiteSpace=wrap;html=1;" parent="1" vertex="1">
          <mxGeometry x="1180" y="530" width="116" height="53" as="geometry" />
        </mxCell>
        <UserObject label="Invoke sva1" lucidchartObjectId="I_lLpCg9F2I." id="a1okjNHGLK1KyI7zbIEn-130">
          <mxCell style="html=1;overflow=block;whiteSpace=wrap;shape=cylinder;size=0.1;anchorPointDirection=0;boundedLbl=1;;whiteSpace=wrap;fontSize=11;fontColor=#333333;spacing=3;strokeColor=#5e5e5e;strokeOpacity=100;rounded=1;absoluteArcSize=1;arcSize=7;strokeWidth=2;" parent="1" vertex="1" zOrder="75">
            <mxGeometry x="1400" y="470" width="72" height="72" as="geometry" />
          </mxCell>
        </UserObject>
        <mxCell id="a1okjNHGLK1KyI7zbIEn-134" value="Update note into the Table" style="text;html=1;align=center;verticalAlign=middle;resizable=0;points=[];autosize=1;" parent="1" vertex="1">
          <mxGeometry x="1280" y="410" width="160" height="20" as="geometry" />
        </mxCell>
        <mxCell id="a1okjNHGLK1KyI7zbIEn-135" value="Update table with Status =&#39;Cancel&#39; with Consumer no" style="text;html=1;align=center;verticalAlign=middle;resizable=0;points=[];autosize=1;" parent="1" vertex="1">
          <mxGeometry x="1296" y="560" width="300" height="20" as="geometry" />
        </mxCell>
        <mxCell id="a1okjNHGLK1KyI7zbIEn-139" style="edgeStyle=orthogonalEdgeStyle;rounded=0;orthogonalLoop=1;jettySize=auto;html=1;exitX=1;exitY=0.5;exitDx=0;exitDy=0;entryX=0;entryY=0.5;entryDx=0;entryDy=0;" parent="1" source="a1okjNHGLK1KyI7zbIEn-137" target="a1okjNHGLK1KyI7zbIEn-138" edge="1">
          <mxGeometry relative="1" as="geometry" />
        </mxCell>
        <mxCell id="a1okjNHGLK1KyI7zbIEn-137" value="My Order" style="rounded=1;whiteSpace=wrap;html=1;" parent="1" vertex="1">
          <mxGeometry x="190" y="-110.00000000000023" width="120" height="60" as="geometry" />
        </mxCell>
        <mxCell id="a1okjNHGLK1KyI7zbIEn-142" style="edgeStyle=orthogonalEdgeStyle;rounded=0;orthogonalLoop=1;jettySize=auto;html=1;exitX=1;exitY=0.5;exitDx=0;exitDy=0;" parent="1" source="a1okjNHGLK1KyI7zbIEn-138" edge="1">
          <mxGeometry relative="1" as="geometry">
            <mxPoint x="700" y="-79.57142857142844" as="targetPoint" />
          </mxGeometry>
        </mxCell>
        <UserObject label="Invokes SVA1" lucidchartObjectId="5ElLfKKwqaxA" id="a1okjNHGLK1KyI7zbIEn-138">
          <mxCell style="html=1;overflow=block;whiteSpace=wrap;shape=cylinder;size=0.1;anchorPointDirection=0;boundedLbl=1;;whiteSpace=wrap;fontSize=11;fontColor=#333333;spacing=3;strokeColor=#5e5e5e;strokeOpacity=100;rounded=1;absoluteArcSize=1;arcSize=7;strokeWidth=2;" parent="1" vertex="1" zOrder="52">
            <mxGeometry x="528" y="-116" width="72" height="72" as="geometry" />
          </mxCell>
        </UserObject>
        <mxCell id="a1okjNHGLK1KyI7zbIEn-140" value="Search with userID&amp;nbsp;" style="text;html=1;align=center;verticalAlign=middle;resizable=0;points=[];autosize=1;" parent="1" vertex="1">
          <mxGeometry x="340" y="-110" width="120" height="20" as="geometry" />
        </mxCell>
        <UserObject label="Display Result" lucidchartObjectId="ralL7fFfY5tx" id="a1okjNHGLK1KyI7zbIEn-141">
          <mxCell style="html=1;overflow=block;whiteSpace=wrap;;whiteSpace=wrap;fontSize=11;fontColor=#333333;spacing=0;strokeColor=#5e5e5e;strokeOpacity=100;rounded=1;absoluteArcSize=1;arcSize=7;strokeWidth=2;fillColor=#00CC66;" parent="1" vertex="1" zOrder="21">
            <mxGeometry x="700" y="-116" width="108" height="84" as="geometry" />
          </mxCell>
        </UserObject>
      </root>
    </mxGraphModel>
  </diagram>
</mxfile>
